<mxfile modified="2022-05-02T07:42:25.550Z" host="app.diagrams.net" agent="5.0 (Windows NT 10.0; Win64; x64) AppleWebKit/537.36 (KHTML, like Gecko) Chrome/100.0.4896.127 Safari/537.36 Edg/100.0.1185.50" etag="1iLyxiQa11P9J8eLF3vO" compressed="false" version="17.5.0" type="google">
  <diagram id="Gzrqm9KRc_doYDzrkCyE" name="ISO-12207:2017">
    <mxGraphModel grid="1" page="1" gridSize="10" guides="1" tooltips="1" connect="1" arrows="1" fold="1" pageScale="1" pageWidth="827" pageHeight="1169" math="0" shadow="0">
      <root>
        <mxCell id="Jst_fTlcH10wPYbCjMxW-0" />
        <mxCell id="Jst_fTlcH10wPYbCjMxW-1" parent="Jst_fTlcH10wPYbCjMxW-0" />
        <mxCell id="Jst_fTlcH10wPYbCjMxW-2" value="Organisational Project-Enabling&amp;nbsp; Processes" style="rounded=0;whiteSpace=wrap;html=1;strokeColor=#666666;fillColor=#f5f5f5;align=center;container=1;collapsible=0;verticalAlign=top;recursiveResize=0;fontColor=#333333;" vertex="1" parent="Jst_fTlcH10wPYbCjMxW-1">
          <mxGeometry x="120" y="330" width="99" height="350" as="geometry" />
        </mxCell>
        <mxCell id="Jst_fTlcH10wPYbCjMxW-3" value="Infrastructure Management Process" style="rounded=0;whiteSpace=wrap;html=1;align=center;fontSize=11;" vertex="1" parent="Jst_fTlcH10wPYbCjMxW-2">
          <mxGeometry x="9.5" y="100" width="80" height="40" as="geometry" />
        </mxCell>
        <mxCell id="Jst_fTlcH10wPYbCjMxW-4" value="Portfolio Management Process" style="rounded=0;whiteSpace=wrap;html=1;align=center;fontSize=11;" vertex="1" parent="Jst_fTlcH10wPYbCjMxW-2">
          <mxGeometry x="9.5" y="150" width="80" height="40" as="geometry" />
        </mxCell>
        <mxCell id="Jst_fTlcH10wPYbCjMxW-5" value="&lt;font style=&quot;font-size: 11px&quot;&gt;Human Resource Mgmt Process&lt;/font&gt;" style="rounded=0;whiteSpace=wrap;html=1;align=center;fontSize=11;" vertex="1" parent="Jst_fTlcH10wPYbCjMxW-2">
          <mxGeometry x="9.5" y="200" width="80" height="40" as="geometry" />
        </mxCell>
        <mxCell id="Jst_fTlcH10wPYbCjMxW-6" value="Quality Management Process" style="rounded=0;whiteSpace=wrap;html=1;align=center;recursiveResize=0;fontSize=11;" vertex="1" parent="Jst_fTlcH10wPYbCjMxW-2">
          <mxGeometry x="9.5" y="250" width="80" height="40" as="geometry" />
        </mxCell>
        <mxCell id="Jst_fTlcH10wPYbCjMxW-7" value="Life Cycle Management Process" style="rounded=0;whiteSpace=wrap;html=1;align=center;fontSize=11;" vertex="1" parent="Jst_fTlcH10wPYbCjMxW-2">
          <mxGeometry x="9.5" y="50" width="80" height="40" as="geometry" />
        </mxCell>
        <mxCell id="Jst_fTlcH10wPYbCjMxW-8" value="Knowledge Management Process" style="rounded=0;whiteSpace=wrap;html=1;align=center;recursiveResize=0;fontSize=11;" vertex="1" parent="Jst_fTlcH10wPYbCjMxW-2">
          <mxGeometry x="10" y="300" width="80" height="40" as="geometry" />
        </mxCell>
        <mxCell id="Jst_fTlcH10wPYbCjMxW-9" value="Project Processes" style="rounded=0;whiteSpace=wrap;html=1;strokeColor=#666666;fillColor=#f5f5f5;align=center;container=1;collapsible=0;verticalAlign=top;recursiveResize=0;fontColor=#333333;" vertex="1" parent="Jst_fTlcH10wPYbCjMxW-1">
          <mxGeometry x="230" y="170" width="90" height="510" as="geometry" />
        </mxCell>
        <mxCell id="Jst_fTlcH10wPYbCjMxW-10" value="Project Planning Process" style="rounded=0;whiteSpace=wrap;html=1;align=center;fontSize=11;" vertex="1" parent="Jst_fTlcH10wPYbCjMxW-9">
          <mxGeometry x="10" y="40" width="70" height="40" as="geometry" />
        </mxCell>
        <mxCell id="Jst_fTlcH10wPYbCjMxW-11" value="&lt;font style=&quot;font-size: 9px&quot;&gt;Project Assessment &amp;amp; Control Process&lt;/font&gt;" style="rounded=0;whiteSpace=wrap;html=1;align=center;fontSize=11;" vertex="1" parent="Jst_fTlcH10wPYbCjMxW-9">
          <mxGeometry x="10" y="90" width="70" height="40" as="geometry" />
        </mxCell>
        <mxCell id="Jst_fTlcH10wPYbCjMxW-12" value="Decision Management Process" style="rounded=0;whiteSpace=wrap;html=1;align=center;fontSize=11;" vertex="1" parent="Jst_fTlcH10wPYbCjMxW-9">
          <mxGeometry x="10" y="210" width="70" height="40" as="geometry" />
        </mxCell>
        <mxCell id="Jst_fTlcH10wPYbCjMxW-13" value="Risk Management Process" style="rounded=0;whiteSpace=wrap;html=1;align=center;fontSize=11;" vertex="1" parent="Jst_fTlcH10wPYbCjMxW-9">
          <mxGeometry x="10" y="260" width="70" height="40" as="geometry" />
        </mxCell>
        <mxCell id="Jst_fTlcH10wPYbCjMxW-14" value="Configuration Management Process" style="rounded=0;whiteSpace=wrap;html=1;align=center;fontSize=11;" vertex="1" parent="Jst_fTlcH10wPYbCjMxW-9">
          <mxGeometry x="10" y="310" width="70" height="40" as="geometry" />
        </mxCell>
        <mxCell id="Jst_fTlcH10wPYbCjMxW-15" value="Information Management Process" style="rounded=0;whiteSpace=wrap;html=1;align=center;fontSize=11;" vertex="1" parent="Jst_fTlcH10wPYbCjMxW-9">
          <mxGeometry x="10" y="360" width="70" height="40" as="geometry" />
        </mxCell>
        <mxCell id="Jst_fTlcH10wPYbCjMxW-16" value="Measurement Management Process" style="rounded=0;whiteSpace=wrap;html=1;align=center;fontSize=11;" vertex="1" parent="Jst_fTlcH10wPYbCjMxW-9">
          <mxGeometry x="10" y="410" width="70" height="40" as="geometry" />
        </mxCell>
        <mxCell id="Jst_fTlcH10wPYbCjMxW-17" value="Quality Assurance Process" style="rounded=0;whiteSpace=wrap;html=1;align=center;fontSize=11;" vertex="1" parent="Jst_fTlcH10wPYbCjMxW-9">
          <mxGeometry x="10" y="460" width="70" height="40" as="geometry" />
        </mxCell>
        <mxCell id="Jst_fTlcH10wPYbCjMxW-18" value="&lt;font style=&quot;font-size: 11px&quot;&gt;Agreement Processes&lt;/font&gt;" style="rounded=0;whiteSpace=wrap;html=1;strokeColor=#666666;fillColor=#f5f5f5;align=center;container=1;collapsible=0;verticalAlign=top;recursiveResize=0;fontColor=#333333;" vertex="1" parent="Jst_fTlcH10wPYbCjMxW-1">
          <mxGeometry x="121" y="170" width="99" height="150" as="geometry" />
        </mxCell>
        <mxCell id="Jst_fTlcH10wPYbCjMxW-19" value="Acquisition Process" style="rounded=0;whiteSpace=wrap;html=1;align=center;fontSize=10;" vertex="1" parent="Jst_fTlcH10wPYbCjMxW-18">
          <mxGeometry x="10" y="40" width="80" height="40" as="geometry" />
        </mxCell>
        <mxCell id="Jst_fTlcH10wPYbCjMxW-20" value="Supply Process" style="rounded=0;whiteSpace=wrap;html=1;align=center;fontSize=10;" vertex="1" parent="Jst_fTlcH10wPYbCjMxW-18">
          <mxGeometry x="10" y="90" width="80" height="40" as="geometry" />
        </mxCell>
        <mxCell id="Jst_fTlcH10wPYbCjMxW-21" value="Technical Processes" style="rounded=0;whiteSpace=wrap;html=1;strokeColor=#666666;fillColor=#f5f5f5;align=center;container=1;collapsible=0;verticalAlign=top;recursiveResize=0;fontColor=#333333;" vertex="1" parent="Jst_fTlcH10wPYbCjMxW-1">
          <mxGeometry x="329" y="170" width="231" height="340" as="geometry" />
        </mxCell>
        <mxCell id="Jst_fTlcH10wPYbCjMxW-22" value="&lt;font style=&quot;font-size: 9px;&quot;&gt;System/Software Requirements definition process&lt;br style=&quot;font-size: 9px;&quot;&gt;&lt;/font&gt;" style="rounded=0;whiteSpace=wrap;html=1;align=center;fontSize=9;" vertex="1" parent="Jst_fTlcH10wPYbCjMxW-21">
          <mxGeometry x="10" y="140" width="100" height="30" as="geometry" />
        </mxCell>
        <mxCell id="Jst_fTlcH10wPYbCjMxW-23" value="&lt;font style=&quot;font-size: 10px;&quot;&gt;Architecture Definition Process&lt;/font&gt;" style="rounded=0;whiteSpace=wrap;html=1;align=center;fontSize=10;" vertex="1" parent="Jst_fTlcH10wPYbCjMxW-21">
          <mxGeometry x="10" y="180" width="100" height="30" as="geometry" />
        </mxCell>
        <mxCell id="Jst_fTlcH10wPYbCjMxW-24" value="Implementation Process" style="rounded=0;whiteSpace=wrap;html=1;align=center;recursiveResize=0;fontSize=10;" vertex="1" parent="Jst_fTlcH10wPYbCjMxW-21">
          <mxGeometry x="10" y="300" width="100" height="30" as="geometry" />
        </mxCell>
        <mxCell id="Jst_fTlcH10wPYbCjMxW-25" value="Integration Process" style="rounded=0;whiteSpace=wrap;html=1;align=center;recursiveResize=0;fontSize=10;" vertex="1" parent="Jst_fTlcH10wPYbCjMxW-21">
          <mxGeometry x="121" y="40" width="100" height="30" as="geometry" />
        </mxCell>
        <mxCell id="Jst_fTlcH10wPYbCjMxW-26" value="&lt;font style=&quot;font-size: 10px;&quot;&gt;System Qualification Testing Process&lt;/font&gt;" style="rounded=0;whiteSpace=wrap;html=1;align=center;recursiveResize=0;fontSize=10;" vertex="1" parent="Jst_fTlcH10wPYbCjMxW-21">
          <mxGeometry x="121" y="80" width="100" height="30" as="geometry" />
        </mxCell>
        <mxCell id="Jst_fTlcH10wPYbCjMxW-27" value="Transition Process" style="rounded=0;whiteSpace=wrap;html=1;align=center;recursiveResize=0;fontSize=10;" vertex="1" parent="Jst_fTlcH10wPYbCjMxW-21">
          <mxGeometry x="121" y="140" width="100" height="30" as="geometry" />
        </mxCell>
        <mxCell id="Jst_fTlcH10wPYbCjMxW-28" value="&lt;font style=&quot;font-size: 10px;&quot;&gt;Validation Process&lt;/font&gt;" style="rounded=0;whiteSpace=wrap;html=1;align=center;recursiveResize=0;fontSize=10;" vertex="1" parent="Jst_fTlcH10wPYbCjMxW-21">
          <mxGeometry x="121" y="180" width="100" height="30" as="geometry" />
        </mxCell>
        <mxCell id="Jst_fTlcH10wPYbCjMxW-29" value="Operation Process" style="rounded=0;whiteSpace=wrap;html=1;align=center;recursiveResize=0;fontSize=10;" vertex="1" parent="Jst_fTlcH10wPYbCjMxW-21">
          <mxGeometry x="121" y="220" width="100" height="30" as="geometry" />
        </mxCell>
        <mxCell id="Jst_fTlcH10wPYbCjMxW-30" value="&lt;font style=&quot;font-size: 9px;&quot;&gt;Stakeholder Needs &amp;amp; Requirements Definition Process&lt;/font&gt;" style="rounded=0;whiteSpace=wrap;html=1;align=center;fontSize=9;" vertex="1" parent="Jst_fTlcH10wPYbCjMxW-21">
          <mxGeometry x="10" y="80" width="100" height="30" as="geometry" />
        </mxCell>
        <mxCell id="Jst_fTlcH10wPYbCjMxW-31" value="&lt;font style=&quot;font-size: 10px;&quot;&gt;Maintenance Process&lt;/font&gt;" style="rounded=0;whiteSpace=wrap;html=1;align=center;recursiveResize=0;fontSize=10;" vertex="1" parent="Jst_fTlcH10wPYbCjMxW-21">
          <mxGeometry x="121" y="260" width="100" height="30" as="geometry" />
        </mxCell>
        <mxCell id="Jst_fTlcH10wPYbCjMxW-32" value="Disposal Process" style="rounded=0;whiteSpace=wrap;html=1;align=center;recursiveResize=0;fontSize=10;" vertex="1" parent="Jst_fTlcH10wPYbCjMxW-21">
          <mxGeometry x="121" y="300" width="100" height="30" as="geometry" />
        </mxCell>
        <mxCell id="Jst_fTlcH10wPYbCjMxW-33" value="&lt;font style=&quot;font-size: 10px;&quot;&gt;Verification Process&lt;/font&gt;" style="rounded=0;whiteSpace=wrap;html=1;align=center;recursiveResize=0;fontSize=10;" vertex="1" parent="Jst_fTlcH10wPYbCjMxW-21">
          <mxGeometry x="121" y="80" width="100" height="30" as="geometry" />
        </mxCell>
        <mxCell id="Jst_fTlcH10wPYbCjMxW-34" value="Business/Mission Analysis Process" style="rounded=0;whiteSpace=wrap;html=1;align=center;recursiveResize=0;fontSize=10;" vertex="1" parent="Jst_fTlcH10wPYbCjMxW-21">
          <mxGeometry x="11" y="40" width="100" height="30" as="geometry" />
        </mxCell>
        <mxCell id="Jst_fTlcH10wPYbCjMxW-35" value="Systems Analysis Process" style="rounded=0;whiteSpace=wrap;html=1;align=center;recursiveResize=0;fontSize=10;" vertex="1" parent="Jst_fTlcH10wPYbCjMxW-21">
          <mxGeometry x="11" y="260" width="100" height="30" as="geometry" />
        </mxCell>
        <mxCell id="Jst_fTlcH10wPYbCjMxW-36" value="&lt;font style=&quot;font-size: 10px;&quot;&gt;Design Defintion Process&lt;/font&gt;" style="rounded=0;whiteSpace=wrap;html=1;align=center;fontSize=10;" vertex="1" parent="Jst_fTlcH10wPYbCjMxW-21">
          <mxGeometry x="11" y="220" width="100" height="30" as="geometry" />
        </mxCell>
        <mxCell id="Jst_fTlcH10wPYbCjMxW-37" value="ISO-12207:2017 improves on earlier iterations of ISO-12207, combining System &amp;amp; Software Processes.&lt;br&gt;&lt;br&gt;ISO-12207 is more specific to software development than ISO-15288.&lt;br&gt;&lt;br&gt;Note that the framework refers to Processes, and not Stages, and therefore is compatible with Iterative development approaches, such as Agile." style="shape=note;whiteSpace=wrap;html=1;size=14;verticalAlign=top;align=left;spacingTop=-6;strokeColor=#666666;fillColor=none;fontSize=9;" vertex="1" parent="Jst_fTlcH10wPYbCjMxW-1">
          <mxGeometry x="331" y="520" width="230" height="160" as="geometry" />
        </mxCell>
        <mxCell id="Jst_fTlcH10wPYbCjMxW-38" value="&lt;font style=&quot;font-size: 12px&quot;&gt;Diagram: Base Logical Module -&amp;nbsp;Document - &lt;br&gt;ISO-12207:2017 System &amp;amp; Software Development Life cycle processes&lt;/font&gt;" style="text;strokeColor=none;fillColor=none;html=1;fontSize=12;fontStyle=2;verticalAlign=middle;align=left;shadow=0;glass=0;comic=0;opacity=30;fontColor=#808080;" vertex="1" parent="Jst_fTlcH10wPYbCjMxW-1">
          <mxGeometry x="120" y="690" width="558" height="20" as="geometry" />
        </mxCell>
      </root>
    </mxGraphModel>
  </diagram>
</mxfile>
